<svg xmlns="http://www.w3.org/2000/svg" version="1.1" xmlns:xlink="http://www.w3.org/1999/xlink" xmlns:svgjs="http://svgjs.dev/svgjs" width="1000" height="623" viewBox="0 0 1000 623"><g transform="matrix(1,0,0,1,-0.6060240250385505,0.2522267206477409)"><svg viewBox="0 0 396 247" data-background-color="#ffffff" preserveAspectRatio="xMidYMid meet" height="623" width="1000" xmlns="http://www.w3.org/2000/svg" xmlns:xlink="http://www.w3.org/1999/xlink"><g id="tight-bounds" transform="matrix(1,0,0,1,0.23998559311513645,-0.09999999999999432)"><svg viewBox="0 0 395.52 247.2" height="247.2" width="395.52"><g><svg></svg></g><g><svg viewBox="0 0 395.52 247.2" height="247.2" width="395.52"><g><g><path xmlns="http://www.w3.org/2000/svg" d="M140.563 247.2h-139.548l0-54.735h27.185v32.262h112.363zM1.015 0h138.461v22.835h-111.276l0 31.9-27.185 0zM394.505 247.2h-28.634l-31.459-54.735 28.563 0zM254.232 247.2h-27.185v-54.735h27.185zM227.047 0h82.642c14.982 0 28.151 2.9 39.508 8.699 11.357 5.799 20.056 13.943 26.098 24.43 3.791 6.612 6.393 13.814 7.804 21.606h-29.147c-1.997-7.546-5.684-14.023-11.062-19.431-8.602-8.554-20.878-12.831-36.826-12.831h-51.832l0 32.262-27.185 0z" fill="#6b7280" fill-rule="nonzero" stroke="none" stroke-width="1" stroke-linecap="butt" stroke-linejoin="miter" stroke-miterlimit="10" stroke-dasharray="" stroke-dashoffset="0" font-family="none" font-weight="none" font-size="none" text-anchor="none" style="mix-blend-mode: normal" data-fill-palette-color="tertiary"></path></g></g><g transform="matrix(1,0,0,1,0,68.71231246296873)"><svg viewBox="0 0 395.52 109.77537507406255" height="109.77537507406255" width="395.52"><g><svg viewBox="0 0 395.52 109.77537507406255" height="109.77537507406255" width="395.52"><g><svg viewBox="0 0 395.52 109.77537507406255" height="109.77537507406255" width="395.52"><g><svg viewBox="0 0 395.52 109.77537507406255" height="109.77537507406255" width="395.52"><g><svg viewBox="0 0 395.52 109.77537507406255" height="109.77537507406255" width="395.52"><g><svg viewBox="0 0 395.52 59.2075918538736" height="59.2075918538736" width="395.52"><g transform="matrix(1,0,0,1,0,0)"><svg width="395.52" viewBox="3.950000047683716 -34.849998474121094 238.1300048828125 35.64999771118164" height="59.2075918538736" data-palette-color="#6b7280"><path d="M23.2 0L3.95 0 3.95-34.1 23.05-34.1 23.05-30.95 7.7-30.95 7.7-19.05 19.7-19.05 19.7-16 7.7-16 7.7-3.1 23.2-3.1 23.2 0ZM53.8 0L50.3 0 46.8-9.55 32.65-9.55 29.5 0 25.75 0 37.85-34.1 41.35-34.1 53.8 0ZM39.55-29.2L33.8-12.65 45.65-12.65 39.55-29.2ZM69.75 0.8Q66 0.8 62.45-1.07 58.9-2.95 56.55-6.15L56.55-6.15 59.6-8.85Q61.4-6 64.2-4.33 67-2.65 70.25-2.65L70.25-2.65Q73.8-2.65 75.65-4.23 77.5-5.8 77.5-8.5L77.5-8.5Q77.5-11.45 75.52-13.03 73.55-14.6 69.25-15.8L69.25-15.8Q58.45-18.45 58.45-25.6L58.45-25.6Q58.45-30.05 61.35-32.45 64.25-34.85 69.4-34.85L69.4-34.85Q73.15-34.85 76.12-33.45 79.09-32.05 81.45-29.15L81.45-29.15 78.5-26.65Q76.7-29.1 74.55-30.28 72.4-31.45 69.4-31.45L69.4-31.45Q66.25-31.45 64.25-29.98 62.25-28.5 62.25-25.95L62.25-25.95Q62.25-23.35 64.09-21.83 65.95-20.3 70.34-19.25L70.34-19.25Q75.55-17.85 78.42-15.4 81.3-12.95 81.3-8.5L81.3-8.5Q81.3-5.75 79.9-3.65 78.5-1.55 75.87-0.38 73.25 0.8 69.75 0.8L69.75 0.8ZM95.84-17.1L105.04-34.1 108.49-34.1 97.44-13.95 97.44 0 93.74 0 93.74-14.1 82.79-34.1 86.54-34.1 95.84-17.1ZM155.94 0L151.99 0 143.34-15.05 136.59-15.05 136.59 0 132.84 0 132.84-34.1 144.24-34.1Q147.34-34.1 149.69-32.9 152.04-31.7 153.29-29.53 154.54-27.35 154.54-24.55L154.54-24.55Q154.54-21.15 152.49-18.73 150.44-16.3 147.04-15.45L147.04-15.45 155.94 0ZM136.59-31L136.59-18.15 143.74-18.15Q147.04-18.15 148.81-19.9 150.59-21.65 150.59-24.55L150.59-24.55Q150.59-27.45 148.81-29.23 147.04-31 143.74-31L143.74-31 136.59-31ZM181.09 0L161.84 0 161.84-34.1 180.94-34.1 180.94-30.95 165.59-30.95 165.59-19.05 177.59-19.05 177.59-16 165.59-16 165.59-3.1 181.09-3.1 181.09 0ZM190.78 0L187.03 0 187.03-34.1 191.03-34.1 208.38-5.65 208.38-34.1 212.13-34.1 212.13 0 208.13 0 190.78-28.35 190.78 0ZM231.33 0L227.63 0 227.63-31 216.88-31 216.88-34.1 242.08-34.1 242.08-31 231.33-31 231.33 0Z" opacity="1" transform="matrix(1,0,0,1,0,0)" fill="#6b7280" class="undefined-text-0" data-fill-palette-color="primary" id="text-0"></path></svg></g></svg></g><g transform="matrix(1,0,0,1,0,73.18508330836866)"><svg viewBox="0 0 395.52 36.590291765693884" height="36.590291765693884" width="395.52"><g transform="matrix(1,0,0,1,0,0)"><svg width="395.52" viewBox="1.7100000381469727 -38.599998474121094 534.2099609375 49.269996643066406" height="36.590291765693884" data-palette-color="#000000"><path d="M14.04 0.51L14.04 0.51Q10.3 0.51 7.53-1.16 4.76-2.83 3.23-5.79 1.71-8.74 1.71-12.55L1.71-12.55 1.71-13.57Q1.71-17.43 3.21-20.45 4.71-23.46 7.35-25.18 9.99-26.9 13.35-26.9L13.35-26.9Q16.94-26.9 19.37-25.46 21.8-24.02 23.05-21.37 24.29-18.73 24.29-15.01L24.29-15.01 24.29-11.5 8.08-11.5 8.03-11.38Q8.13-9.3 8.9-7.69 9.67-6.08 11.1-5.15 12.52-4.22 14.58-4.22L14.58-4.22Q16.72-4.22 18.48-4.81 20.24-5.4 21.73-6.47L21.73-6.47 23.66-2.61Q22.09-1.29 19.68-0.39 17.26 0.51 14.04 0.51ZM8.11-15.94L8.18-15.82 18.41-15.82 18.41-16.46Q18.41-18.19 17.88-19.49 17.36-20.8 16.25-21.53 15.14-22.27 13.43-22.27L13.43-22.27Q11.94-22.27 10.82-21.44 9.69-20.61 9.02-19.18 8.35-17.75 8.11-15.94L8.11-15.94ZM60.37 0.51L60.37 0.51Q56.34 0.51 54.09-1.56 51.84-3.64 51.84-7.28L51.84-7.28Q51.84-9.77 53.21-11.65 54.58-13.53 57.22-14.59 59.85-15.65 63.61-15.65L63.61-15.65 67.64-15.65 67.64-17.87Q67.64-19.97 66.38-21.22 65.13-22.46 62.73-22.46L62.73-22.46Q61.37-22.46 60.32-22.13 59.27-21.8 58.44-21.19L58.44-21.19 57.88-17.63 53.36-17.63 53.31-24.15Q55.26-25.42 57.66-26.16 60.05-26.9 62.98-26.9L62.98-26.9Q68.01-26.9 70.9-24.55 73.79-22.19 73.79-17.8L73.79-17.8 73.79-6.15Q73.79-5.62 73.81-5.1 73.82-4.59 73.87-4.1L73.87-4.1 76.55-3.76 76.55 0 68.52 0Q68.28-0.85 68.07-1.66 67.86-2.47 67.76-3.27L67.76-3.27Q66.44-1.61 64.58-0.55 62.71 0.51 60.37 0.51ZM61.76-4.25L61.76-4.25Q63.61-4.25 65.22-5.11 66.84-5.98 67.64-7.3L67.64-7.3 67.64-11.72 63.54-11.72Q60.78-11.72 59.38-10.44 57.97-9.16 57.97-7.45L57.97-7.45Q57.97-5.91 58.95-5.08 59.93-4.25 61.76-4.25ZM114.36 0.51L114.36 0.51Q111.53 0.51 109.07-0.04 106.62-0.59 104.15-1.66L104.15-1.66 104.08-8.64 108.5-8.64 109.43-4.83Q110.48-4.37 111.59-4.11 112.7-3.86 114.07-3.86L114.07-3.86Q116.7-3.86 117.79-4.79 118.88-5.71 118.88-7.08L118.88-7.08Q118.88-8.4 117.74-9.34 116.6-10.28 113.41-10.96L113.41-10.96Q108.67-11.99 106.44-13.95 104.2-15.92 104.2-19.07L104.2-19.07Q104.2-21.24 105.36-23 106.52-24.76 108.78-25.82 111.04-26.88 114.33-26.88L114.33-26.88Q117.34-26.88 119.67-26.26 122-25.63 123.64-24.61L123.64-24.61 123.78-17.9 119.41-17.9 118.66-21.39Q117.9-21.92 116.9-22.22 115.9-22.51 114.6-22.51L114.6-22.51Q112.58-22.51 111.4-21.62 110.23-20.73 110.23-19.38L110.23-19.38Q110.23-18.6 110.61-17.97 110.99-17.33 112.08-16.81 113.16-16.28 115.26-15.8L115.26-15.8Q120.41-14.6 122.64-12.67 124.86-10.74 124.86-7.57L124.86-7.57Q124.86-4.03 122.27-1.76 119.68 0.51 114.36 0.51ZM158.78 10.67L158.78 10.67Q158.02 10.67 157.04 10.52 156.05 10.38 155.31 10.16L155.31 10.16 156 5.54Q156.44 5.62 157.06 5.66 157.68 5.71 158.05 5.71L158.05 5.71Q159.59 5.71 160.64 4.75 161.69 3.78 162.35 2.08L162.35 2.08 163.15-0.05 154.12-22.19 151.04-22.63 151.04-26.42 163.84-26.42 163.84-22.63 160.59-22.14 165.18-9.84 165.98-7.54 166.13-7.54 171.55-22.17 168.3-22.63 168.3-26.42 180.44-26.42 180.44-22.63 177.58-22.22 167.35 3.98Q166.62 5.83 165.53 7.36 164.45 8.89 162.8 9.78 161.15 10.67 158.78 10.67ZM252.27 0.46L252.27 0.46Q248.9 0.46 247.02-1.43 245.14-3.32 245.14-7.47L245.14-7.47 245.14-22.02 241.28-22.02 241.28-26.42 245.14-26.42 245.14-32.84 251.27-32.84 251.27-26.42 256.49-26.42 256.49-22.02 251.27-22.02 251.27-7.47Q251.27-5.79 251.96-5.02 252.66-4.25 253.85-4.25L253.85-4.25Q254.54-4.25 255.38-4.37 256.22-4.49 256.73-4.61L256.73-4.61 257.37-0.29Q256.29 0.02 254.92 0.24 253.54 0.46 252.27 0.46ZM295.69 0.51L295.69 0.51Q291.88 0.51 289.15-1.2 286.41-2.91 284.95-5.94 283.48-8.98 283.48-12.94L283.48-12.94 283.48-13.45Q283.48-17.38 284.95-20.41 286.41-23.44 289.15-25.17 291.88-26.9 295.64-26.9L295.64-26.9Q299.45-26.9 302.18-25.18 304.92-23.46 306.38-20.43 307.85-17.41 307.85-13.45L307.85-13.45 307.85-12.94Q307.85-8.98 306.38-5.94 304.92-2.91 302.19-1.2 299.47 0.51 295.69 0.51ZM295.69-4.22L295.69-4.22Q297.74-4.22 299.07-5.33 300.4-6.45 301.06-8.41 301.72-10.38 301.72-12.94L301.72-12.94 301.72-13.45Q301.72-15.99 301.06-17.94 300.4-19.9 299.06-21.02 297.71-22.14 295.64-22.14L295.64-22.14Q293.61-22.14 292.27-21.02 290.93-19.9 290.28-17.94 289.63-15.99 289.63-13.45L289.63-13.45 289.63-12.94Q289.63-10.38 290.28-8.41 290.93-6.45 292.28-5.33 293.64-4.22 295.69-4.22ZM385.63 0L371.2 0 371.2-3.76 374.89-4.49 374.89-22.02 370.86-22.02 370.86-26.42 374.89-26.42 374.89-29.52Q374.89-33.86 377.3-36.23 379.7-38.6 384.02-38.6L384.02-38.6Q385.02-38.6 386.17-38.44 387.32-38.28 388.27-38.04L388.27-38.04 387.66-33.42Q387.15-33.54 386.39-33.63 385.63-33.72 384.9-33.72L384.9-33.72Q382.95-33.72 381.98-32.64 381.02-31.57 381.02-29.52L381.02-29.52 381.02-26.42 386.93-26.42 386.93-22.02 381.02-22.02 381.02-4.49 385.63-3.76 385.63 0ZM426.76 0L413.31 0 413.31-3.76 416.97-4.49 416.97-21.9 413.09-22.63 413.09-26.42 423.12-26.42 423.12-4.49 426.76-3.76 426.76 0ZM423.12-32.4L416.73-32.4 416.73-38.09 423.12-38.09 423.12-32.4ZM466.25 0L453.09 0 453.09-3.76 456.75-4.49 456.75-21.9 452.9-22.63 452.9-26.42 462.42-26.42 462.74-22.58Q464.05-24.63 466.02-25.77 467.98-26.9 470.47-26.9L470.47-26.9Q474.55-26.9 476.82-24.4 479.09-21.9 479.09-16.58L479.09-16.58 479.09-4.49 482.76-3.76 482.76 0 469.5 0 469.5-3.76 472.94-4.49 472.94-16.53Q472.94-19.53 471.74-20.79 470.55-22.05 468.18-22.05L468.18-22.05Q466.4-22.05 465.07-21.25 463.74-20.46 462.91-19.04L462.91-19.04 462.91-4.49 466.25-3.76 466.25 0ZM519.24 0.51L519.24 0.51Q516.05 0.51 513.77-1.1 511.5-2.71 510.3-5.6 509.09-8.5 509.09-12.35L509.09-12.35 509.09-12.87Q509.09-17.09 510.3-20.24 511.5-23.39 513.79-25.15 516.07-26.9 519.22-26.9L519.22-26.9Q521.49-26.9 523.19-26.04 524.88-25.17 526.1-23.56L526.1-23.56 526.1-33.57 522.22-34.3 522.22-38.09 526.1-38.09 532.26-38.09 532.26-4.49 535.92-3.76 535.92 0 526.93 0 526.45-3.2Q525.2-1.37 523.41-0.43 521.61 0.51 519.24 0.51ZM520.98-4.35L520.98-4.35Q522.73-4.35 524-5.11 525.27-5.88 526.1-7.35L526.1-7.35 526.1-18.99Q525.3-20.41 524.02-21.23 522.73-22.05 521.03-22.05L521.03-22.05Q519.02-22.05 517.74-20.89 516.46-19.73 515.85-17.66 515.24-15.6 515.24-12.87L515.24-12.87 515.24-12.35Q515.24-8.69 516.59-6.52 517.95-4.35 520.98-4.35Z" opacity="1" transform="matrix(1,0,0,1,0,0)" fill="#000000" class="undefined-text-1" data-fill-palette-color="secondary" id="text-1"></path></svg></g></svg></g></svg></g></svg></g></svg></g></svg></g></svg></g></svg></g><defs></defs></svg><rect width="395.52" height="247.2" fill="none" stroke="none" visibility="hidden"></rect></g></svg></g></svg>